#!OML:ASF H:\LiuWeirdWalks\Patient Classification 1\Patient 1\Session 1\male.ASF
:FULLY-SPECIFIED
:DEGREES
705
root 1.70452 17.7903 38.1962 3.16281 2.08871 -5.03558
lowerback -0.505317 -1.00183 4.83102
upperback -1.14377 -1.30535 3.63847
thorax -0.915988 -0.676024 1.03521
lowerneck -20.3622 0.121518 3.43949
upperneck 16.7881 -0.499567 -1.72671
head 8.57182 -0.198417 -1.21361
rclavicle -2.85504e-014 3.18055e-015
rhumerus -27.6556 -4.98214 -83.2194
rradius 28.6454
rwrist -5.84057
rhand -16.7153 -0.0662467
rfingers 7.12502
rthumb 9.51 -29.8316
lclavicle -2.85504e-014 3.18055e-015
lhumerus -23.5293 0.0150989 83.9998
lradius 30.6845
lwrist 7.63981
lhand -16.2754 -1.34846
lfingers 7.12502
lthumb 9.93444 28.3971
rfemur -23.8885 -1.97725 26.1134
rtibia 25.1845
rfoot 5.28077 -20.089
rtoes -0.844234
lfemur -4.70577 -0.218754 -12.1187
ltibia 32.9783
lfoot -15.0202 16.673
ltoes -14.3027
706
root 1.67997 17.7784 38.2823 2.77146 2.03003 -5.43299
lowerback -0.0670418 -0.869754 5.51046
upperback -1.08457 -1.09437 3.68236
thorax -1.11075 -0.578758 0.708984
lowerneck -20.4828 -0.172541 3.18931
upperneck 16.8581 -0.868844 -1.55147
head 8.6081 -0.369019 -1.16263
rclavicle -3.70236e-015 -2.14687e-014
rhumerus -27.4841 -5.34241 -83.0005
rradius 28.2955
rwrist -5.65167
rhand -16.534 0.105415
rfingers 7.12502
rthumb 9.68499 -29.6519
lclavicle -3.70236e-015 -2.14687e-014
lhumerus -23.8791 0.313849 84.2278
lradius 30.4317
lwrist 7.42679
lhand -16.4186 -1.42614
lfingers 7.12502
lthumb 9.79634 28.326
rfemur -23.4141 -1.89186 26.6527
rtibia 25.6531
rfoot 4.87394 -20.2317
rtoes -1.03144
lfemur -4.49025 -0.255358 -11.5705
ltibia 33.9529
lfoot -14.8941 16.6083
ltoes -14.6302
707
root 1.65444 17.7675 38.3675 2.31439 1.97176 -5.76733
lowerback 0.417688 -0.809256 5.99515
upperback -1.00642 -0.970935 3.76667
thorax -1.30693 -0.523911 0.532656
lowerneck -20.5154 -0.402937 3.03287
upperneck 16.8834 -1.16058 -1.44818
head 8.6163 -0.505026 -1.14056
rclavicle -1.63376e-014 -1.27222e-014
rhumerus -27.2738 -5.52742 -82.8074
rradius 27.8964
rwrist -5.46621
rhand -16.3471 0.0825016
rfingers 7.12502
rthumb 9.86534 -29.6664
lclavicle -1.63376e-014 -1.27222e-014
lhumerus -24.3166 0.871437 84.4091
lradius 30.1884
lwrist 7.20466
lhand -16.5624 -1.52659
lfingers 7.12502
lthumb 9.65754 28.232
rfemur -22.8455 -1.91267 27.1254
rtibia 26.0831
rfoot 4.43892 -20.2777
rtoes -1.22132
lfemur -4.25376 -0.23589 -11.07
ltibia 34.9965
lfoot -14.6939 16.4199
ltoes -14.9551
708
root 1.62785 17.7582 38.4519 1.86464 1.9346 -6.00615
lowerback 0.865328 -0.768972 6.33151
upperback -0.914575 -0.876104 3.8424
thorax -1.4653 -0.481473 0.42853
lowerneck -20.5519 -0.636138 2.88653
upperneck 16.9073 -1.46159 -1.33414
head 8.62535 -0.643498 -1.11778
rclavicle -1.09829e-014 -1.74931e-014
rhumerus -27.0279 -5.76039 -82.5798
rradius 27.4498
rwrist -5.20508
rhand -16.1152 0.0412111
rfingers 7.12502
rthumb 10.089 -29.6969
lclavicle -1.09829e-014 -1.74931e-014
lhumerus -24.7731 1.52479 84.5776
lradius 29.9397
lwrist 6.99083
lhand -16.6945 -1.63631
lfingers 7.12502
lthumb 9.5301 28.1282
rfemur -22.2684 -2.02282 27.4945
rtibia 26.4875
rfoot 3.97832 -20.2528
rtoes -1.36952
lfemur -4.06617 -0.200953 -10.6517
ltibia 36.0774
lfoot -14.4035 16.1179
ltoes -15.2568
709
root 1.6001 17.7515 38.5357 1.45328 1.93533 -6.15799
lowerback 1.2372 -0.755227 6.50668
upperback -0.817957 -0.824167 3.92725
thorax -1.5744 -0.457798 0.422317
lowerneck -20.596 -0.870264 2.72683
upperneck 16.9448 -1.76325 -1.20535
head 8.64146 -0.781318 -1.08818
rclavicle 5.79582e-015 -3.73715e-014
rhumerus -26.7471 -5.98136 -82.318
rradius 26.9724
rwrist -4.902
rhand -15.8363 -0.0708759
rfingers 7.12502
rthumb 10.3581 -29.7958
lclavicle 5.79582e-015 -3.73715e-014
lhumerus -25.2537 2.31178 84.736
lradius 29.6915
lwrist 6.74543
lhand -16.7828 -1.7532
lfingers 7.12502
lthumb 9.44496 28.0152
rfemur -21.7179 -2.17387 27.7625
rtibia 26.8683
rfoot 3.51744 -20.2187
rtoes -1.49447
lfemur -3.96178 -0.178419 -10.3051
ltibia 37.1784
lfoot -14.0321 15.7007
ltoes -15.5438
710
root 1.57104 17.7472 38.619 1.09745 1.98474 -6.23925
lowerback 1.51093 -0.765412 6.54101
upperback -0.716658 -0.815786 4.02056
thorax -1.62266 -0.45297 0.502292
lowerneck -20.6485 -1.10801 2.56362
upperneck 16.9644 -2.07046 -1.06919
head 8.65384 -0.921254 -1.05624
rclavicle 1.59028e-015 -5.725e-014
rhumerus -26.4235 -6.23293 -82.0188
rradius 26.4614
rwrist -4.50866
rhand -15.5227 -0.148778
rfingers 7.12502
rthumb 10.6606 -29.8583
lclavicle 1.59028e-015 -5.725e-014
lhumerus -25.7472 3.20411 84.8828
lradius 29.452
lwrist 6.51996
lhand -16.8335 -1.85189
lfingers 7.12502
lthumb 9.396 27.9187
rfemur -21.2167 -2.33086 27.9446
rtibia 27.2295
rfoot 3.07055 -20.2098
rtoes -1.61527
lfemur -3.95117 -0.182158 -10.0138
ltibia 38.2822
lfoot -13.5884 15.1879
ltoes -15.9289
711
root 1.5403 17.7456 38.7016 0.809502 2.0912 -6.25959
lowerback 1.67143 -0.796005 6.45154
upperback -0.613348 -0.848608 4.11756
thorax -1.60457 -0.465997 0.654169
lowerneck -20.7232 -1.35612 2.39718
upperneck 16.9853 -2.39383 -0.921644
head 8.67147 -1.06758 -1.02244
rclavicle -1.16227e-014 -1.82882e-014
rhumerus -26.0645 -6.50236 -81.6974
rradius 25.9298
rwrist -4.0735
rhand -15.1862 -0.181909
rfingers 7.12502
rthumb 10.9852 -29.8745
lclavicle -1.16227e-014 -1.82882e-014
lhumerus -26.2392 4.17152 85.0156
lradius 29.2153
lwrist 6.32297
lhand -16.8502 -1.90486
lfingers 7.12502
lthumb 9.37985 27.8664
rfemur -20.7763 -2.4733 28.0536
rtibia 27.5668
rfoot 2.64166 -20.2616
rtoes -1.71282
lfemur -4.04658 -0.231195 -9.7699
ltibia 39.3795
lfoot -13.0816 14.5929
ltoes -16.3982
